<svg width="400" height="503" viewBox="0 0 400 503" fill="none" xmlns="http://www.w3.org/2000/svg">
<path d="M175.99 125.253C220.225 64.213 315.232 57.8358 346.09 129.049C376.948 200.262 419.055 332.97 389.261 373.511C359.467 414.204 291.974 336.766 221.593 369.108C151.06 401.45 1.63319 362.579 0.873133 278.004C0.265089 193.277 121.266 200.717 175.99 125.253Z" fill="#FF2D23"/>
<path d="M168.239 459.058C168.239 459.058 172.385 475.149 178.07 481.656C183.756 488.163 193.943 493.133 198.918 487.927C203.892 482.721 195.246 457.046 193.232 451.13C190.271 442.73 181.15 420.25 181.15 420.25L171.319 429.715L170.134 443.558L168.239 459.058Z" fill="#2C2E3E"/>
<path d="M171.674 446.398C171.674 446.398 181.624 471.954 187.428 472.9C199.865 474.912 190.745 451.367 190.745 451.367L180.084 417.41L173.333 424.154L171.2 440.127L171.674 446.398Z" fill="#2C2E3E" stroke="white" stroke-width="0.5" stroke-miterlimit="10"/>
<path d="M154.025 437.405C154.025 437.405 140.522 474.793 138.627 485.323C136.732 495.853 137.206 501.414 143.839 502.715C150.472 504.017 163.857 495.143 166.226 482.957C168.595 470.77 173.333 433.737 173.333 433.737L154.025 437.405Z" fill="#2C2E3E"/>
<path d="M155.684 431.016C155.684 431.016 147.274 463.198 145.497 471.362C143.483 479.999 144.313 485.915 150.946 485.915C156.75 485.915 164.33 477.988 166.226 465.565C168.121 453.141 169.424 443.203 171.319 434.684C171.2 434.684 168.358 427.112 155.684 431.016Z" fill="#2C2E3E" stroke="white" stroke-width="0.5" stroke-miterlimit="10"/>
<path d="M138.627 284.896C138.627 284.896 143.01 302.17 144.905 309.979C146.8 317.669 148.103 340.15 147.511 348.195C146.918 356.24 159 403.803 159 403.803L154.144 429.596C154.144 429.596 160.54 437.169 173.333 433.974C173.333 433.974 178.663 422.261 181.624 415.872C184.585 409.483 204.958 367.599 206.854 350.916C208.749 334.115 208.157 319.444 208.986 316.841C209.696 314.238 218.935 285.014 218.935 285.014H138.627V284.896Z" fill="white" stroke="#2C2E3E" stroke-width="0.5" stroke-miterlimit="10"/>
<path d="M177.478 285.843C177.478 285.843 175.228 309.624 174.636 321.101C174.043 332.578 159 403.804 159 403.804" stroke="#2C2E3E" stroke-width="0.5" stroke-miterlimit="10"/>
<path d="M241.204 258.629C241.204 258.629 244.284 259.339 245.468 262.179L264.657 304.654C264.657 304.654 267.144 310.807 260.037 310.807H93.6165C93.6165 310.807 87.9309 310.688 90.2999 303.826L108.659 262.297C108.659 262.297 109.962 258.629 115.056 258.629" fill="white"/>
<path d="M241.204 258.629C241.204 258.629 244.284 259.339 245.468 262.179L264.657 304.654C264.657 304.654 267.144 310.807 260.037 310.807H93.6165C93.6165 310.807 87.9309 310.688 90.2999 303.826L108.659 262.297C108.659 262.297 109.962 258.629 115.056 258.629" stroke="#2C2E3E" stroke-width="0.5" stroke-miterlimit="10"/>
<path d="M115.174 182.671H241.322C243.691 182.671 245.587 184.564 245.587 186.93V254.252C245.587 256.618 243.691 258.511 241.322 258.511H115.174C112.805 258.511 110.91 256.618 110.91 254.252V186.93C110.91 184.564 112.805 182.671 115.174 182.671Z" fill="white" stroke="#2C2E3E" stroke-width="0.5" stroke-miterlimit="10"/>
<path d="M233.031 244.432H235.874C236.466 244.432 237.058 244.905 237.058 245.615V248.454C237.058 249.046 236.584 249.638 235.874 249.638H233.031C232.439 249.638 231.846 249.164 231.846 248.454V245.615C231.965 244.905 232.439 244.432 233.031 244.432Z" fill="white" stroke="#2C2E3E" stroke-width="0.5" stroke-miterlimit="10"/>
<path d="M225.924 244.432H228.767C229.359 244.432 229.951 244.905 229.951 245.615V248.454C229.951 249.046 229.477 249.638 228.767 249.638H225.924C225.332 249.638 224.739 249.164 224.739 248.454V245.615C224.739 244.905 225.213 244.432 225.924 244.432Z" fill="white" stroke="#2C2E3E" stroke-width="0.5" stroke-miterlimit="10"/>
<path d="M218.699 244.432H221.541C222.134 244.432 222.726 244.905 222.726 245.615V248.454C222.726 249.046 222.252 249.638 221.541 249.638H218.699C218.106 249.638 217.514 249.164 217.514 248.454V245.615C217.633 244.905 218.106 244.432 218.699 244.432Z" fill="white" stroke="#2C2E3E" stroke-width="0.5" stroke-miterlimit="10"/>
<path d="M211.592 244.432H214.434C215.027 244.432 215.619 244.905 215.619 245.615V248.454C215.619 249.046 215.145 249.638 214.434 249.638H211.592C210.999 249.638 210.407 249.164 210.407 248.454V245.615C210.407 244.905 210.999 244.432 211.592 244.432Z" fill="white" stroke="#2C2E3E" stroke-width="0.5" stroke-miterlimit="10"/>
<path d="M204.485 244.432H207.327C207.92 244.432 208.512 244.905 208.512 245.615V248.454C208.512 249.046 208.038 249.638 207.327 249.638H204.485C203.892 249.638 203.3 249.164 203.3 248.454V245.615C203.3 244.905 203.774 244.432 204.485 244.432Z" fill="white" stroke="#2C2E3E" stroke-width="0.5" stroke-miterlimit="10"/>
<path d="M197.259 244.432H200.102C200.694 244.432 201.287 244.905 201.287 245.615V248.454C201.287 249.046 200.813 249.638 200.102 249.638H197.259C196.667 249.638 196.075 249.164 196.075 248.454V245.615C196.075 244.905 196.667 244.432 197.259 244.432Z" fill="white" stroke="#2C2E3E" stroke-width="0.5" stroke-miterlimit="10"/>
<path d="M190.152 244.432H192.995C193.587 244.432 194.18 244.905 194.18 245.615V248.454C194.18 249.046 193.706 249.638 192.995 249.638H190.152C189.56 249.638 188.968 249.164 188.968 248.454V245.615C188.968 244.905 189.442 244.432 190.152 244.432Z" fill="white" stroke="#2C2E3E" stroke-width="0.5" stroke-miterlimit="10"/>
<path d="M182.927 244.432H185.77C186.362 244.432 186.954 244.905 186.954 245.615V248.454C186.954 249.046 186.48 249.638 185.77 249.638H182.927C182.335 249.638 181.742 249.164 181.742 248.454V245.615C181.861 244.905 182.335 244.432 182.927 244.432Z" fill="white" stroke="#2C2E3E" stroke-width="0.5" stroke-miterlimit="10"/>
<path d="M175.82 244.432H178.663C179.255 244.432 179.847 244.905 179.847 245.615V248.454C179.847 249.046 179.374 249.638 178.663 249.638H175.82C175.228 249.638 174.636 249.164 174.636 248.454V245.615C174.636 244.905 175.228 244.432 175.82 244.432Z" fill="white" stroke="#2C2E3E" stroke-width="0.5" stroke-miterlimit="10"/>
<path d="M168.713 244.432H171.556C172.148 244.432 172.74 244.905 172.74 245.615V248.454C172.74 249.046 172.267 249.638 171.556 249.638H168.713C168.121 249.638 167.529 249.164 167.529 248.454V245.615C167.529 244.905 168.002 244.432 168.713 244.432Z" fill="white" stroke="#2C2E3E" stroke-width="0.5" stroke-miterlimit="10"/>
<path d="M223.91 237.451H226.753C227.345 237.451 227.938 237.924 227.938 238.634V241.474C227.938 242.065 227.464 242.657 226.753 242.657H223.91C223.318 242.657 222.726 242.184 222.726 241.474V238.634C222.726 238.043 223.2 237.451 223.91 237.451Z" fill="white" stroke="#2C2E3E" stroke-width="0.5" stroke-miterlimit="10"/>
<path d="M230.425 237.451H235.992C236.584 237.451 237.058 237.924 237.058 238.516V241.592C237.058 242.184 236.584 242.657 235.992 242.657H230.425C229.833 242.657 229.359 242.184 229.359 241.592V238.516C229.478 237.924 229.951 237.451 230.425 237.451Z" fill="white" stroke="#2C2E3E" stroke-width="0.5" stroke-miterlimit="10"/>
<path d="M166.226 223.963H190.982C191.455 223.963 191.929 224.436 191.929 224.909V228.222C191.929 228.696 191.455 229.169 190.982 229.169H166.226C165.752 229.169 165.278 228.696 165.278 228.222V224.909C165.278 224.436 165.752 223.963 166.226 223.963Z" fill="white" stroke="#2C2E3E" stroke-width="0.5" stroke-miterlimit="10"/>
<path d="M165.16 197.697H191.337C192.64 197.697 193.587 198.762 193.587 199.945V215.089C193.587 216.391 192.521 217.337 191.337 217.337H165.16C163.857 217.337 162.909 216.272 162.909 215.089V199.945C162.909 198.643 163.857 197.697 165.16 197.697Z" fill="white" stroke="#2C2E3E" stroke-width="0.5" stroke-miterlimit="10"/>
<path d="M216.685 237.451H219.528C220.12 237.451 220.712 237.924 220.712 238.634V241.474C220.712 242.065 220.238 242.657 219.528 242.657H216.685C216.093 242.657 215.5 242.184 215.5 241.474V238.634C215.5 238.043 216.093 237.451 216.685 237.451Z" fill="white" stroke="#2C2E3E" stroke-width="0.5" stroke-miterlimit="10"/>
<path d="M209.46 237.451H212.302C212.895 237.451 213.487 237.924 213.487 238.634V241.474C213.487 242.065 213.013 242.657 212.302 242.657H209.46C208.867 242.657 208.275 242.184 208.275 241.474V238.634C208.394 238.043 208.867 237.451 209.46 237.451Z" fill="white" stroke="#2C2E3E" stroke-width="0.5" stroke-miterlimit="10"/>
<path d="M202.353 237.451H205.195C205.788 237.451 206.38 237.924 206.38 238.634V241.474C206.38 242.065 205.906 242.657 205.195 242.657H202.353C201.76 242.657 201.168 242.184 201.168 241.474V238.634C201.168 238.043 201.642 237.451 202.353 237.451Z" fill="white" stroke="#2C2E3E" stroke-width="0.5" stroke-miterlimit="10"/>
<path d="M195.127 237.451H197.97C198.562 237.451 199.155 237.924 199.155 238.634V241.474C199.155 242.065 198.681 242.657 197.97 242.657H195.127C194.535 242.657 193.943 242.184 193.943 241.474V238.634C194.061 238.043 194.535 237.451 195.127 237.451Z" fill="white" stroke="#2C2E3E" stroke-width="0.5" stroke-miterlimit="10"/>
<path d="M188.02 237.451H190.863C191.455 237.451 192.048 237.924 192.048 238.634V241.474C192.048 242.065 191.574 242.657 190.863 242.657H188.02C187.428 242.657 186.836 242.184 186.836 241.474V238.634C186.836 238.043 187.31 237.451 188.02 237.451Z" fill="white" stroke="#2C2E3E" stroke-width="0.5" stroke-miterlimit="10"/>
<path d="M180.795 237.451H183.638C184.23 237.451 184.822 237.924 184.822 238.634V241.474C184.822 242.065 184.348 242.657 183.638 242.657H180.795C180.203 242.657 179.61 242.184 179.61 241.474V238.634C179.61 238.043 180.203 237.451 180.795 237.451Z" fill="white" stroke="#2C2E3E" stroke-width="0.5" stroke-miterlimit="10"/>
<path d="M173.688 237.451H176.531C177.123 237.451 177.715 237.924 177.715 238.634V241.474C177.715 242.065 177.241 242.657 176.531 242.657H173.688C173.096 242.657 172.504 242.184 172.504 241.474V238.634C172.504 238.043 172.977 237.451 173.688 237.451Z" fill="white" stroke="#2C2E3E" stroke-width="0.5" stroke-miterlimit="10"/>
<path d="M166.463 237.451H169.305C169.898 237.451 170.49 237.924 170.49 238.634V241.474C170.49 242.065 170.016 242.657 169.305 242.657H166.463C165.87 242.657 165.278 242.184 165.278 241.474V238.634C165.278 238.043 165.87 237.451 166.463 237.451Z" fill="white" stroke="#2C2E3E" stroke-width="0.5" stroke-miterlimit="10"/>
<path d="M233.031 230.826H235.874C236.466 230.826 237.058 231.299 237.058 232.009V234.848C237.058 235.44 236.584 236.032 235.874 236.032H233.031C232.439 236.032 231.846 235.558 231.846 234.848V232.009C231.965 231.417 232.439 230.826 233.031 230.826Z" fill="white" stroke="#2C2E3E" stroke-width="0.5" stroke-miterlimit="10"/>
<path d="M225.924 230.826H228.767C229.359 230.826 229.951 231.299 229.951 232.009V234.848C229.951 235.44 229.477 236.032 228.767 236.032H225.924C225.332 236.032 224.739 235.558 224.739 234.848V232.009C224.739 231.417 225.213 230.826 225.924 230.826Z" fill="white" stroke="#2C2E3E" stroke-width="0.5" stroke-miterlimit="10"/>
<path d="M218.699 230.826H221.541C222.134 230.826 222.726 231.299 222.726 232.009V234.848C222.726 235.44 222.252 236.032 221.541 236.032H218.699C218.106 236.032 217.514 235.558 217.514 234.848V232.009C217.633 231.417 218.106 230.826 218.699 230.826Z" fill="white" stroke="#2C2E3E" stroke-width="0.5" stroke-miterlimit="10"/>
<path d="M211.592 230.826H214.434C215.027 230.826 215.619 231.299 215.619 232.009V234.848C215.619 235.44 215.145 236.032 214.434 236.032H211.592C210.999 236.032 210.407 235.558 210.407 234.848V232.009C210.407 231.417 210.999 230.826 211.592 230.826Z" fill="white" stroke="#2C2E3E" stroke-width="0.5" stroke-miterlimit="10"/>
<path d="M204.485 230.826H207.327C207.92 230.826 208.512 231.299 208.512 232.009V234.848C208.512 235.44 208.038 236.032 207.327 236.032H204.485C203.892 236.032 203.3 235.558 203.3 234.848V232.009C203.3 231.417 203.774 230.826 204.485 230.826Z" fill="white" stroke="#2C2E3E" stroke-width="0.5" stroke-miterlimit="10"/>
<path d="M197.259 230.826H200.102C200.694 230.826 201.287 231.299 201.287 232.009V234.848C201.287 235.44 200.813 236.032 200.102 236.032H197.259C196.667 236.032 196.075 235.558 196.075 234.848V232.009C196.075 231.417 196.667 230.826 197.259 230.826Z" fill="white" stroke="#2C2E3E" stroke-width="0.5" stroke-miterlimit="10"/>
<path d="M190.152 230.826H192.995C193.587 230.826 194.18 231.299 194.18 232.009V234.848C194.18 235.44 193.706 236.032 192.995 236.032H190.152C189.56 236.032 188.968 235.558 188.968 234.848V232.009C188.968 231.417 189.442 230.826 190.152 230.826Z" fill="white" stroke="#2C2E3E" stroke-width="0.5" stroke-miterlimit="10"/>
<path d="M182.927 230.826H185.77C186.362 230.826 186.954 231.299 186.954 232.009V234.848C186.954 235.44 186.48 236.032 185.77 236.032H182.927C182.335 236.032 181.742 235.558 181.742 234.848V232.009C181.861 231.417 182.335 230.826 182.927 230.826Z" fill="white" stroke="#2C2E3E" stroke-width="0.5" stroke-miterlimit="10"/>
<path d="M175.82 230.826H178.663C179.255 230.826 179.847 231.299 179.847 232.009V234.848C179.847 235.44 179.374 236.032 178.663 236.032H175.82C175.228 236.032 174.636 235.558 174.636 234.848V232.009C174.636 231.417 175.228 230.826 175.82 230.826Z" fill="white" stroke="#2C2E3E" stroke-width="0.5" stroke-miterlimit="10"/>
<path d="M168.713 230.826H171.556C172.148 230.826 172.74 231.299 172.74 232.009V234.848C172.74 235.44 172.267 236.032 171.556 236.032H168.713C168.121 236.032 167.529 235.558 167.529 234.848V232.009C167.529 231.417 168.002 230.826 168.713 230.826Z" fill="white" stroke="#2C2E3E" stroke-width="0.5" stroke-miterlimit="10"/>
<path d="M161.488 230.826H164.331C164.923 230.826 165.515 231.299 165.515 232.009V234.848C165.515 235.44 165.041 236.032 164.331 236.032H161.488C160.895 236.032 160.303 235.558 160.303 234.848V232.009C160.303 231.417 160.895 230.826 161.488 230.826Z" fill="white" stroke="#2C2E3E" stroke-width="0.5" stroke-miterlimit="10"/>
<path d="M159.237 223.963H162.08C162.672 223.963 163.265 224.436 163.265 225.146V227.986C163.265 228.577 162.791 229.169 162.08 229.169H159.237C158.645 229.169 158.053 228.696 158.053 227.986V225.146C158.171 224.554 158.645 223.963 159.237 223.963Z" fill="white" stroke="#2C2E3E" stroke-width="0.5" stroke-miterlimit="10"/>
<path d="M152.13 223.963H154.973C155.565 223.963 156.158 224.436 156.158 225.146V227.986C156.158 228.577 155.684 229.169 154.973 229.169H152.13C151.538 229.169 150.946 228.696 150.946 227.986V225.146C150.946 224.554 151.42 223.963 152.13 223.963Z" fill="white" stroke="#2C2E3E" stroke-width="0.5" stroke-miterlimit="10"/>
<path d="M144.905 223.963H147.748C148.34 223.963 148.932 224.436 148.932 225.146V227.986C148.932 228.577 148.458 229.169 147.748 229.169H144.905C144.313 229.169 143.72 228.696 143.72 227.986V225.146C143.72 224.554 144.313 223.963 144.905 223.963Z" fill="white" stroke="#2C2E3E" stroke-width="0.5" stroke-miterlimit="10"/>
<path d="M137.798 223.963H140.641C141.233 223.963 141.825 224.436 141.825 225.146V227.986C141.825 228.577 141.351 229.169 140.641 229.169H137.798C137.206 229.169 136.614 228.696 136.614 227.986V225.146C136.614 224.554 137.087 223.963 137.798 223.963Z" fill="white" stroke="#2C2E3E" stroke-width="0.5" stroke-miterlimit="10"/>
<path d="M216.093 223.963H218.936C219.528 223.963 220.12 224.436 220.12 225.146V227.986C220.12 228.577 219.646 229.169 218.936 229.169H216.093C215.501 229.169 214.908 228.696 214.908 227.986V225.146C215.027 224.554 215.501 223.963 216.093 223.963Z" fill="white" stroke="#2C2E3E" stroke-width="0.5" stroke-miterlimit="10"/>
<path d="M223.081 223.963H225.924C226.516 223.963 227.108 224.436 227.108 225.146V227.986C227.108 228.577 226.635 229.169 225.924 229.169H223.081C222.489 229.169 221.897 228.696 221.897 227.986V225.146C222.015 224.554 222.489 223.963 223.081 223.963Z" fill="white" stroke="#2C2E3E" stroke-width="0.5" stroke-miterlimit="10"/>
<path d="M230.07 223.963H235.874C236.466 223.963 237.058 224.436 237.058 225.146V227.986C237.058 228.577 236.584 229.169 235.874 229.169H230.07C229.477 229.169 228.885 228.696 228.885 227.986V225.146C229.004 224.554 229.477 223.963 230.07 223.963Z" fill="white" stroke="#2C2E3E" stroke-width="0.5" stroke-miterlimit="10"/>
<path d="M209.104 223.963H211.947C212.539 223.963 213.132 224.436 213.132 225.146V227.986C213.132 228.577 212.658 229.169 211.947 229.169H209.104C208.512 229.169 207.92 228.696 207.92 227.986V225.146C208.038 224.554 208.512 223.963 209.104 223.963Z" fill="white" stroke="#2C2E3E" stroke-width="0.5" stroke-miterlimit="10"/>
<path d="M202.116 223.963H204.959C205.551 223.963 206.143 224.436 206.143 225.146V227.986C206.143 228.577 205.669 229.169 204.959 229.169H202.116C201.524 229.169 200.931 228.696 200.931 227.986V225.146C201.05 224.554 201.524 223.963 202.116 223.963Z" fill="white" stroke="#2C2E3E" stroke-width="0.5" stroke-miterlimit="10"/>
<path d="M195.127 223.963H197.97C198.562 223.963 199.155 224.436 199.155 225.146V227.986C199.155 228.577 198.681 229.169 197.97 229.169H195.127C194.535 229.169 193.943 228.696 193.943 227.986V225.146C194.061 224.554 194.535 223.963 195.127 223.963Z" fill="white" stroke="#2C2E3E" stroke-width="0.5" stroke-miterlimit="10"/>
<path d="M130.572 223.963H133.415C134.008 223.963 134.6 224.436 134.6 225.146V227.986C134.6 228.577 134.126 229.169 133.415 229.169H130.572C129.98 229.169 129.388 228.696 129.388 227.986V225.146C129.388 224.554 129.98 223.963 130.572 223.963Z" fill="white" stroke="#2C2E3E" stroke-width="0.5" stroke-miterlimit="10"/>
<path d="M154.381 230.826H157.224C157.816 230.826 158.408 231.299 158.408 232.009V234.848C158.408 235.44 157.934 236.032 157.224 236.032H154.381C153.789 236.032 153.196 235.558 153.196 234.848V232.009C153.196 231.417 153.67 230.826 154.381 230.826Z" fill="white" stroke="#2C2E3E" stroke-width="0.5" stroke-miterlimit="10"/>
<path d="M147.155 230.826H149.998C150.59 230.826 151.183 231.299 151.183 232.009V234.848C151.183 235.44 150.709 236.032 149.998 236.032H147.155C146.563 236.032 145.971 235.558 145.971 234.848V232.009C146.089 231.417 146.563 230.826 147.155 230.826Z" fill="white" stroke="#2C2E3E" stroke-width="0.5" stroke-miterlimit="10"/>
<path d="M140.048 230.826H142.891C143.483 230.826 144.076 231.299 144.076 232.009V234.848C144.076 235.44 143.602 236.032 142.891 236.032H140.048C139.456 236.032 138.864 235.558 138.864 234.848V232.009C138.864 231.417 139.456 230.826 140.048 230.826Z" fill="white" stroke="#2C2E3E" stroke-width="0.5" stroke-miterlimit="10"/>
<path d="M132.942 230.826H135.784C136.377 230.826 136.969 231.299 136.969 232.009V234.848C136.969 235.44 136.495 236.032 135.784 236.032H132.942C132.349 236.032 131.757 235.558 131.757 234.848V232.009C131.757 231.417 132.231 230.826 132.942 230.826Z" fill="white" stroke="#2C2E3E" stroke-width="0.5" stroke-miterlimit="10"/>
<path d="M125.716 230.826H128.559C129.151 230.826 129.743 231.299 129.743 232.009V234.848C129.743 235.44 129.27 236.032 128.559 236.032H125.716C125.124 236.032 124.532 235.558 124.532 234.848V232.009C124.532 231.417 125.124 230.826 125.716 230.826Z" fill="white" stroke="#2C2E3E" stroke-width="0.5" stroke-miterlimit="10"/>
<path d="M118.609 237.569H126.545C127.138 237.569 127.73 238.043 127.73 238.752V241.592C127.73 242.184 127.256 242.775 126.545 242.775H118.609C118.017 242.775 117.425 242.302 117.425 241.592V238.752C117.425 238.161 117.899 237.569 118.609 237.569Z" fill="white" stroke="#2C2E3E" stroke-width="0.5" stroke-miterlimit="10"/>
<path d="M118.609 223.963H126.545C127.138 223.963 127.73 224.436 127.73 225.146V227.986C127.73 228.577 127.256 229.169 126.545 229.169H118.609C118.017 229.169 117.425 228.696 117.425 227.986V225.146C117.425 224.554 117.899 223.963 118.609 223.963Z" fill="white" stroke="#2C2E3E" stroke-width="0.5" stroke-miterlimit="10"/>
<path d="M118.609 230.826H121.452C122.044 230.826 122.636 231.299 122.636 232.009V234.848C122.636 235.44 122.163 236.032 121.452 236.032H118.609C118.017 236.032 117.425 235.558 117.425 234.848V232.009C117.425 231.417 117.899 230.826 118.609 230.826Z" fill="white" stroke="#2C2E3E" stroke-width="0.5" stroke-miterlimit="10"/>
<path d="M159.237 237.451H162.08C162.672 237.451 163.265 237.924 163.265 238.634V241.474C163.265 242.065 162.791 242.657 162.08 242.657H159.237C158.645 242.657 158.053 242.184 158.053 241.474V238.634C158.171 238.043 158.645 237.451 159.237 237.451Z" fill="white" stroke="#2C2E3E" stroke-width="0.5" stroke-miterlimit="10"/>
<path d="M152.13 237.451H154.973C155.565 237.451 156.158 237.924 156.158 238.634V241.474C156.158 242.065 155.684 242.657 154.973 242.657H152.13C151.538 242.657 150.946 242.184 150.946 241.474V238.634C150.946 238.043 151.42 237.451 152.13 237.451Z" fill="white" stroke="#2C2E3E" stroke-width="0.5" stroke-miterlimit="10"/>
<path d="M144.905 237.451H147.748C148.34 237.451 148.932 237.924 148.932 238.634V241.474C148.932 242.065 148.458 242.657 147.748 242.657H144.905C144.313 242.657 143.72 242.184 143.72 241.474V238.634C143.72 238.043 144.313 237.451 144.905 237.451Z" fill="white" stroke="#2C2E3E" stroke-width="0.5" stroke-miterlimit="10"/>
<path d="M137.798 237.451H140.641C141.233 237.451 141.825 237.924 141.825 238.634V241.474C141.825 242.065 141.351 242.657 140.641 242.657H137.798C137.206 242.657 136.614 242.184 136.614 241.474V238.634C136.614 238.043 137.087 237.451 137.798 237.451Z" fill="white" stroke="#2C2E3E" stroke-width="0.5" stroke-miterlimit="10"/>
<path d="M130.572 237.451H133.415C134.008 237.451 134.6 237.924 134.6 238.634V241.474C134.6 242.065 134.126 242.657 133.415 242.657H130.572C129.98 242.657 129.388 242.184 129.388 241.474V238.634C129.388 238.043 129.98 237.451 130.572 237.451Z" fill="white" stroke="#2C2E3E" stroke-width="0.5" stroke-miterlimit="10"/>
<path d="M161.488 244.432H164.331C164.923 244.432 165.515 244.905 165.515 245.615V248.454C165.515 249.046 165.041 249.638 164.331 249.638H161.488C160.895 249.638 160.303 249.164 160.303 248.454V245.615C160.303 244.905 160.895 244.432 161.488 244.432Z" fill="white" stroke="#2C2E3E" stroke-width="0.5" stroke-miterlimit="10"/>
<path d="M154.381 244.432H157.224C157.816 244.432 158.408 244.905 158.408 245.615V248.454C158.408 249.046 157.934 249.638 157.224 249.638H154.381C153.789 249.638 153.196 249.164 153.196 248.454V245.615C153.196 244.905 153.67 244.432 154.381 244.432Z" fill="white" stroke="#2C2E3E" stroke-width="0.5" stroke-miterlimit="10"/>
<path d="M147.155 244.432H149.998C150.59 244.432 151.183 244.905 151.183 245.615V248.454C151.183 249.046 150.709 249.638 149.998 249.638H147.155C146.563 249.638 145.971 249.164 145.971 248.454V245.615C146.089 244.905 146.563 244.432 147.155 244.432Z" fill="white" stroke="#2C2E3E" stroke-width="0.5" stroke-miterlimit="10"/>
<path d="M140.048 244.432H142.891C143.483 244.432 144.076 244.905 144.076 245.615V248.454C144.076 249.046 143.602 249.638 142.891 249.638H140.048C139.456 249.638 138.864 249.164 138.864 248.454V245.615C138.864 244.905 139.456 244.432 140.048 244.432Z" fill="white" stroke="#2C2E3E" stroke-width="0.5" stroke-miterlimit="10"/>
<path d="M132.942 244.432H135.784C136.377 244.432 136.969 244.905 136.969 245.615V248.454C136.969 249.046 136.495 249.638 135.784 249.638H132.942C132.349 249.638 131.757 249.164 131.757 248.454V245.615C131.757 244.905 132.231 244.432 132.942 244.432Z" fill="white" stroke="#2C2E3E" stroke-width="0.5" stroke-miterlimit="10"/>
<path d="M125.716 244.432H128.559C129.151 244.432 129.743 244.905 129.743 245.615V248.454C129.743 249.046 129.27 249.638 128.559 249.638H125.716C125.124 249.638 124.532 249.164 124.532 248.454V245.615C124.532 244.905 125.124 244.432 125.716 244.432Z" fill="white" stroke="#2C2E3E" stroke-width="0.5" stroke-miterlimit="10"/>
<path d="M118.609 244.432H121.452C122.044 244.432 122.636 244.905 122.636 245.615V248.454C122.636 249.046 122.163 249.638 121.452 249.638H118.609C118.017 249.638 117.425 249.164 117.425 248.454V245.615C117.425 244.905 117.899 244.432 118.609 244.432Z" fill="white" stroke="#2C2E3E" stroke-width="0.5" stroke-miterlimit="10"/>
<path d="M259.445 307.258H94.3271C94.3271 307.258 92.7873 307.494 93.498 305.601L111.147 264.901C111.147 264.901 112.45 261.351 117.306 261.351H237.887C237.887 261.351 240.967 261.351 242.27 263.836L260.866 304.773C260.866 304.773 261.814 307.258 259.445 307.258Z" stroke="#5A5F64" stroke-width="0.5" stroke-miterlimit="10"/>
<path d="M254.352 57.1383C253.878 54.4171 245.468 51.4592 237.058 48.1463C228.648 44.8335 210.999 41.4023 210.999 41.4023C210.999 41.4023 162.317 38.6811 151.183 41.4023C140.048 44.1236 117.78 55.9552 114.345 58.2032C110.91 60.4512 110.791 61.9893 109.133 71.2179C107.475 80.4465 104.395 146.703 104.395 146.703L118.017 183.026L214.908 139.959L238.361 116.06L238.598 135.227L261.695 130.612C261.814 130.494 254.825 59.8596 254.352 57.1383ZM132.941 168.71L127.256 141.261L129.506 116.415C129.506 116.415 133.297 127.536 137.916 131.914L132.941 168.71Z" fill="white"/>
<path d="M238.006 137.237L222.963 170.721C222.963 170.721 231.846 176.045 234.334 176.873C236.821 177.82 242.033 178.529 242.033 178.529L262.406 140.787V137.237L260.037 112.154L238.124 131.44L238.006 137.237Z" fill="white"/>
<path d="M134.955 182.316C134.955 182.316 132.823 180.541 132.823 176.755C132.823 166.106 135.31 143.981 137.443 135.108C137.443 135.108 138.509 132.623 137.443 131.085C136.376 129.665 128.559 116.65 127.019 108.605C125.479 100.559 147.511 100.914 147.511 100.914L238.361 109.552V117.005L228.056 134.753C228.056 134.753 227.701 150.016 228.53 156.76L222.963 170.484L227.819 173.442L219.883 182.316H134.955Z" fill="white"/>
<path d="M117.069 180.305C117.069 180.305 120.267 188.587 121.097 191.19C121.926 193.793 126.545 208.7 126.545 208.7C126.545 208.7 127.848 211.658 127.73 215.09C127.611 218.521 125.598 238.279 125.598 240.172C125.598 242.066 126.545 243.959 127.611 243.249C128.677 242.539 131.757 227.986 131.757 227.986L131.046 243.959C131.046 243.959 131.165 249.638 135.666 250.821C135.666 250.821 136.021 255.672 140.285 253.424C140.285 253.424 140.404 241.001 140.404 239.463C140.522 237.924 141.47 228.459 141.47 228.459C141.47 228.459 143.839 245.497 144.549 247.508C145.26 249.519 145.971 251.649 147.155 251.294C148.34 250.821 148.458 247.626 148.458 243.604C148.458 239.581 147.984 220.887 147.984 220.887L151.538 230.826C151.538 230.826 152.841 235.322 154.973 234.967C157.105 234.612 154.973 223.963 154.973 223.963C154.973 223.963 152.841 212.013 152.604 211.54C152.367 211.067 143.128 199.472 143.128 199.472C143.128 199.472 138.745 194.266 137.442 190.598C136.14 186.812 133.889 174.625 133.889 174.625L117.069 180.305Z" fill="white"/>
<path d="M130.691 95.2361C130.691 95.2361 128.44 137.002 127.256 141.261C127.256 141.261 133.534 167.882 134.363 179.595C134.363 179.595 126.071 185.866 120.03 188.232C120.03 188.232 105.106 151.081 104.277 146.703C103.448 142.444 107.712 68.8517 110.555 61.9893C113.397 55.127 144.312 43.6504 144.312 43.6504" stroke="#2C2E3E" stroke-width="0.5" stroke-miterlimit="10"/>
<path d="M134.481 179.595C134.481 179.595 135.903 189.06 139.456 194.503C143.01 199.945 152.012 210.239 152.604 211.54C153.196 212.841 155.091 222.898 155.447 227.158C155.802 231.417 156.157 235.913 154.144 234.848C152.13 233.665 148.577 223.017 147.984 219.94C147.984 219.94 148.932 246.443 148.34 249.401C147.748 252.359 145.734 252.004 144.549 247.508C143.483 243.012 141.588 229.997 141.351 227.158" stroke="#2C2E3E" stroke-width="0.5" stroke-miterlimit="10"/>
<path d="M122.281 195.331L120.149 188.232" stroke="#2C2E3E" stroke-width="0.5" stroke-miterlimit="10"/>
<path d="M138.035 191.899C138.035 191.899 137.087 192.846 134.481 193.556C131.875 194.266 130.099 193.438 126.782 193.556C121.807 193.792 121.097 198.17 121.097 198.17C121.097 198.17 120.504 202.311 123.229 204.796C125.953 207.28 130.217 206.097 131.875 204.796C135.547 201.72 136.258 197.697 140.996 196.632" stroke="#2C2E3E" stroke-width="0.5" stroke-miterlimit="10"/>
<path d="M127.256 204.678C130.003 204.678 132.231 202.453 132.231 199.709C132.231 196.964 130.003 194.739 127.256 194.739C124.508 194.739 122.281 196.964 122.281 199.709C122.281 202.453 124.508 204.678 127.256 204.678Z" stroke="#2C2E3E" stroke-width="0.5" stroke-miterlimit="10"/>
<path d="M222.015 177.347C222.015 177.347 217.514 189.533 215.382 190.835C213.368 192.136 206.38 198.762 205.788 199.353C205.195 199.945 200.931 203.849 198.799 209.647C196.667 215.444 195.601 220.059 195.601 220.059C195.601 220.059 199.036 222.188 201.05 217.692C203.063 213.196 206.972 210.238 206.972 210.238C206.972 210.238 208.393 215.563 208.157 219.349C207.92 223.135 206.854 228.341 206.143 231.417C205.432 234.493 203.3 240.172 204.84 240.882C206.38 241.474 208.749 238.634 210.526 234.848C213.131 229.287 214.671 224.081 214.671 224.081L213.724 233.428C213.724 233.428 211.947 241.592 212.421 242.657C212.894 243.604 214.434 245.142 215.974 243.367C215.974 243.367 216.922 242.894 217.632 242.42C218.343 242.065 220.475 239.936 221.66 235.913C222.844 232.009 224.621 222.307 224.621 222.307L225.332 233.428C225.332 233.428 225.213 235.321 226.753 235.203C228.293 235.085 228.53 231.18 228.53 231.18L231.254 196.514L235.518 187.167L240.967 176.992L224.739 170.129L222.015 177.347Z" fill="white"/>
<path d="M224.147 171.431C224.147 171.431 218.817 186.575 215.382 190.834C211.947 195.094 205.432 197.933 200.931 205.506C196.549 213.078 195.601 220.058 195.601 220.058C195.601 220.058 199.036 222.188 201.05 217.692C203.063 213.196 206.972 210.238 206.972 210.238C206.972 210.238 208.867 215.681 207.92 223.135C206.972 230.589 203.774 238.516 204.129 240.054C204.485 241.592 207.09 241.237 209.341 237.451C211.828 233.192 214.671 225.501 215.027 218.994" stroke="#2C2E3E" stroke-width="0.5" stroke-miterlimit="10"/>
<path d="M216.448 242.539C216.448 242.539 218.58 242.894 219.765 239.936C220.949 236.978 223.792 229.169 224.858 219.704C224.858 219.704 224.976 234.257 225.687 234.849C226.398 235.44 228.056 235.913 228.53 231.181C228.885 226.448 230.662 199.354 231.254 196.514C231.846 193.556 240.375 178.53 240.375 178.53" stroke="#2C2E3E" stroke-width="0.5" stroke-miterlimit="10"/>
<path d="M238.716 99.732C238.716 99.732 238.124 135.227 238.124 137.238C238.124 137.238 230.662 150.371 223.081 170.721C223.081 170.721 235.518 179.24 242.151 178.53C242.151 178.53 261.577 144.337 262.525 140.788C263.472 137.356 255.536 61.0427 254.352 57.1383C253.167 53.2338 230.188 45.6616 230.188 45.6616" stroke="#2C2E3E" stroke-width="0.5" stroke-miterlimit="10"/>
<path d="M144.431 49.9209C144.431 49.9209 141.47 53.9436 143.01 63.054C144.668 72.2826 152.959 94.4077 168.476 109.434C183.993 124.46 200.576 100.56 200.576 100.56" stroke="#2C2E3E" stroke-width="0.5" stroke-miterlimit="10"/>
<path d="M153.078 71.2173C153.078 71.2173 163.975 101.033 179.61 101.033C192.047 101.033 207.801 86.5983 208.156 84.3503" stroke="#2C2E3E" stroke-width="0.5" stroke-miterlimit="10"/>
<path d="M153.078 71.2175C153.078 71.2175 144.786 61.5156 143.839 45.6613C142.891 29.9253 150.353 9.57496 161.843 5.07896C173.333 0.582957 195.009 -3.32147 206.972 6.49875C218.935 16.319 215.856 23.5362 226.753 28.7421C237.532 33.948 226.516 48.0276 229.833 55.8365C233.149 63.527 243.928 71.5725 235.755 89.0832C227.582 106.594 226.042 106.002 224.503 119.017C222.963 132.032 216.685 136.646 208.275 134.043C208.275 134.043 210.289 123.986 204.366 115.823C198.444 107.54 202.353 90.503 202.353 90.503C202.353 90.503 208.867 84.8238 208.986 82.9308C209.104 81.0377 208.986 74.767 200.813 71.0992C192.64 67.4314 194.18 60.2141 185.888 60.4508C177.478 60.6874 167.055 56.9013 163.975 51.8137C163.857 51.932 155.21 56.6647 153.078 71.2175Z" fill="#2C2E3E"/>
<path d="M133.415 171.432C132.349 163.268 138.035 131.914 138.035 131.914C138.035 131.914 129.269 120.319 129.625 114.403" stroke="#2C2E3E" stroke-width="0.5" stroke-miterlimit="10"/>
<path d="M138.035 131.914C138.035 131.914 149.761 138.066 159.356 138.303" stroke="#2C2E3E" stroke-width="0.5" stroke-miterlimit="10"/>
<path d="M229.004 155.932C229.004 155.932 227.819 148.596 227.701 142.917C227.582 137.119 228.056 134.871 228.056 134.871C228.056 134.871 231.965 127.418 238.479 115.941" stroke="#2C2E3E" stroke-width="0.5" stroke-miterlimit="10"/>
<path d="M135.547 250.229C135.547 250.229 130.691 250.111 130.928 244.077C131.165 238.042 131.994 228.932 131.639 228.104C131.283 227.276 128.677 242.065 127.493 243.367C126.427 244.668 125.479 242.065 125.479 242.065C125.479 242.065 128.44 215.444 127.374 211.658C126.308 207.872 125.716 206.452 125.716 206.452" stroke="#2C2E3E" stroke-width="0.5" stroke-miterlimit="10"/>
<path d="M140.996 230.589C140.996 230.589 139.693 246.68 140.285 253.543C140.285 253.543 136.14 256.382 135.666 250.23C135.192 244.077 135.073 232.837 135.666 229.879" stroke="#2C2E3E" stroke-width="0.5" stroke-miterlimit="10"/>
<path d="M214.671 222.544C214.671 222.544 213.487 236.505 212.539 240.764C211.592 245.024 214.908 245.024 216.448 242.539C217.869 240.054 220.949 226.448 221.067 220.414" stroke="#2C2E3E" stroke-width="0.5" stroke-miterlimit="10"/>
</svg>
