<svg width="70" height="69" viewBox="0 0 70 69" fill="none" xmlns="http://www.w3.org/2000/svg">
<path d="M35.0051 68.5564C53.78 68.5564 68.9999 53.3535 68.9999 34.5997C68.9999 15.846 53.78 0.643066 35.0051 0.643066C16.2303 0.643066 1.01025 15.846 1.01025 34.5997C1.01025 53.3535 16.2303 68.5564 35.0051 68.5564Z" fill="white" stroke="#2C2E3E" stroke-width="0.5" stroke-miterlimit="10"/>
<path d="M14.395 36.966H9.65701C8.35407 36.966 7.28802 35.9012 7.28802 34.5997C7.28802 33.2982 8.35407 32.2334 9.65701 32.2334H14.395" fill="white"/>
<path d="M14.395 36.966H9.65701C8.35407 36.966 7.28802 35.9012 7.28802 34.5997C7.28802 33.2982 8.35407 32.2334 9.65701 32.2334H14.395" stroke="#2C2E3E" stroke-width="0.5" stroke-miterlimit="10"/>
<path d="M35.0053 55.1871C46.3879 55.1871 55.6154 45.97 55.6154 34.6001C55.6154 23.2303 46.3879 14.0132 35.0053 14.0132C23.6226 14.0132 14.3951 23.2303 14.3951 34.6001C14.3951 45.97 23.6226 55.1871 35.0053 55.1871Z" fill="white" stroke="#2C2E3E" stroke-width="0.5" stroke-miterlimit="10"/>
<path d="M35.0051 50.8092C43.9674 50.8092 51.2326 43.552 51.2326 34.5999C51.2326 25.6478 43.9674 18.3906 35.0051 18.3906C26.0429 18.3906 18.7776 25.6478 18.7776 34.5999C18.7776 43.552 26.0429 50.8092 35.0051 50.8092Z" fill="white" stroke="#2C2E3E" stroke-width="0.5" stroke-miterlimit="10"/>
<path d="M35.0051 49.508C43.2477 49.508 49.9297 42.8335 49.9297 34.6002C49.9297 26.3668 43.2477 19.6924 35.0051 19.6924C26.7625 19.6924 20.0805 26.3668 20.0805 34.6002C20.0805 42.8335 26.7625 49.508 35.0051 49.508Z" fill="#2C2E3E"/>
</svg>
