<svg width="58" height="81" viewBox="0 0 58 81" fill="none" xmlns="http://www.w3.org/2000/svg">
<path d="M33.9861 80.3105L2.83397 71.3185C1.05723 70.8452 0.109646 68.9522 0.583442 67.1774L19.2984 2.81357C19.7722 1.03883 21.6673 0.0922782 23.4441 0.565542L54.5962 9.55756C56.3729 10.0308 57.3205 11.9239 56.8467 13.6986L38.1318 78.0625C37.5395 79.8372 35.7628 80.7837 33.9861 80.3105Z" fill="white" stroke="#2C2E3E" stroke-width="0.5" stroke-miterlimit="10"/>
<path d="M35.8812 71.2007L6.03206 62.5637C4.72913 62.2087 4.01844 60.7889 4.37379 59.4874L20.6013 3.76066C20.9566 2.45918 22.378 1.7493 23.681 2.10424L53.5301 10.7413C54.8331 11.0962 55.5438 12.516 55.1884 13.8175L38.9609 69.5443C38.6055 70.8458 37.1841 71.5556 35.8812 71.2007Z" fill="white" stroke="#2C2E3E" stroke-width="0.4966" stroke-miterlimit="10"/>
<path d="M24.5102 29.08L20.9567 28.0152C20.1276 27.7786 19.7722 26.9504 19.8906 26.2405L20.9567 22.691C21.1936 21.8628 22.0228 21.5079 22.7335 21.6262L26.2869 22.691C27.1161 22.9277 27.4714 23.7559 27.353 24.4658L26.2869 28.0152C26.05 28.8434 25.2209 29.3167 24.5102 29.08Z" stroke="#2C2E3E" stroke-width="0.5" stroke-miterlimit="10"/>
<path d="M44.2912 25.0571L23.5626 19.023C22.7334 18.7864 22.3781 17.9582 22.4965 17.2483L23.5626 13.6988C23.7995 12.8706 24.6286 12.5157 25.3393 12.634L46.0679 18.6681C46.897 18.9047 47.2524 19.7329 47.1339 20.4428L46.0679 23.9923C45.831 24.8205 45.0018 25.2938 44.2912 25.0571Z" stroke="#2C2E3E" stroke-width="0.5" stroke-miterlimit="10"/>
<path d="M33.0385 31.5645L29.485 30.4996C28.6559 30.263 28.3005 29.4348 28.419 28.7249L29.485 25.1754C29.7219 24.3472 30.5511 23.9922 31.2618 24.1106L34.8152 25.1754C35.6444 25.412 35.9997 26.2402 35.8813 26.9501L34.8152 30.4996C34.6968 31.3278 33.8676 31.8011 33.0385 31.5645Z" stroke="#2C2E3E" stroke-width="0.5" stroke-miterlimit="10"/>
<path d="M41.5668 34.0488L38.0134 32.984C37.1842 32.7474 36.8289 31.9192 36.9473 31.2093L38.0134 27.6598C38.2503 26.8316 39.0794 26.4766 39.7901 26.5949L43.3436 27.6598C44.1727 27.8964 44.5281 28.7246 44.4096 29.4345L43.3436 32.984C43.2251 33.8122 42.396 34.2855 41.5668 34.0488Z" stroke="#2C2E3E" stroke-width="0.5" stroke-miterlimit="10"/>
<path d="M21.9043 37.9536L18.3508 36.8888C17.5216 36.6521 17.1663 35.8239 17.2848 35.114L18.3508 31.5646C18.5877 30.7363 19.4168 30.3814 20.1275 30.4997L23.681 31.5646C24.5101 31.8012 24.8655 32.6294 24.747 33.3393L23.681 36.8888C23.5626 37.717 22.7334 38.1902 21.9043 37.9536Z" stroke="#2C2E3E" stroke-width="0.5" stroke-miterlimit="10"/>
<path d="M30.4326 40.438L26.8792 39.3731C26.05 39.1365 25.6947 38.3083 25.8131 37.5984L26.8792 34.0489C27.1161 33.2207 27.9452 32.8658 28.6559 32.9841L32.2094 34.0489C33.0385 34.2856 33.3939 35.1138 33.2754 35.8237L32.2094 39.3731C32.0909 40.2013 31.2618 40.6746 30.4326 40.438Z" stroke="#2C2E3E" stroke-width="0.5" stroke-miterlimit="10"/>
<path d="M39.0794 42.9224L35.5259 41.8575C34.6968 41.6209 34.3414 40.7927 34.4599 40.0828L35.5259 36.5333C35.7628 35.7051 36.5919 35.3502 37.3026 35.4685L40.8561 36.5333C41.6853 36.77 42.0406 37.5982 41.9221 38.3081L40.8561 41.8575C40.6192 42.6857 39.7901 43.159 39.0794 42.9224Z" stroke="#2C2E3E" stroke-width="0.5" stroke-miterlimit="10"/>
<path d="M19.2984 46.8272L15.7449 45.7623C14.9157 45.5257 14.5604 44.6975 14.6789 43.9876L15.7449 40.4381C15.9818 39.6099 16.8109 39.2549 17.5216 39.3733L21.0751 40.4381C21.9042 40.6747 22.2596 41.5029 22.1412 42.2128L21.0751 45.7623C20.9567 46.5905 20.1275 46.9455 19.2984 46.8272Z" stroke="#2C2E3E" stroke-width="0.5" stroke-miterlimit="10"/>
<path d="M27.9452 49.3116L24.3918 48.2467C23.5626 48.0101 23.2073 47.1819 23.3257 46.472L24.3918 42.9225C24.6287 42.0943 25.4578 41.7393 26.1685 41.8576L29.722 42.9225C30.5511 43.1591 30.9065 43.9873 30.788 44.6972L29.722 48.2467C29.4851 49.0749 28.6559 49.4299 27.9452 49.3116Z" stroke="#2C2E3E" stroke-width="0.5" stroke-miterlimit="10"/>
<path d="M16.811 55.5825L13.2576 54.5177C12.4284 54.2811 12.0731 53.4528 12.1915 52.7429L13.2576 49.1935C13.4945 48.3653 14.3236 48.0103 15.0343 48.1286L18.5878 49.1935C19.4169 49.4301 19.7723 50.2583 19.6538 50.9682L18.5878 54.5177C18.3509 55.3459 17.5217 55.8192 16.811 55.5825Z" stroke="#2C2E3E" stroke-width="0.5" stroke-miterlimit="10"/>
<path d="M25.3394 58.0674L21.7859 57.0025C20.9567 56.7659 20.6014 55.9377 20.7198 55.2278L21.7859 51.6783C22.0228 50.8501 22.8519 50.4952 23.5626 50.6135L27.1161 51.6783C27.9452 51.915 28.3006 52.7432 28.1821 53.4531L27.1161 57.0025C26.9976 57.8308 26.1685 58.304 25.3394 58.0674Z" stroke="#2C2E3E" stroke-width="0.5" stroke-miterlimit="10"/>
<path d="M36.4736 51.7959L32.9201 50.7311C32.091 50.4945 31.7356 49.6662 31.8541 48.9564L32.9201 45.4069C33.157 44.5787 33.9862 44.2237 34.6968 44.342L38.2503 45.4069C39.0794 45.6435 39.4348 46.4717 39.3164 47.1816L38.2503 50.7311C38.1319 51.5593 37.3027 51.9142 36.4736 51.7959Z" stroke="#2C2E3E" stroke-width="0.5" stroke-miterlimit="10"/>
<path d="M19.6537 74.3947C21.3546 74.3947 22.7334 73.0174 22.7334 71.3184C22.7334 69.6195 21.3546 68.2422 19.6537 68.2422C17.9529 68.2422 16.574 69.6195 16.574 71.3184C16.574 73.0174 17.9529 74.3947 19.6537 74.3947Z" stroke="#2C2E3E" stroke-width="0.5" stroke-miterlimit="10"/>
</svg>
