<svg width="97" height="126" viewBox="0 0 97 126" fill="none" xmlns="http://www.w3.org/2000/svg">
<path d="M94.7673 95.0698L31.3971 112.581C30.0941 112.935 28.6728 112.226 28.3174 110.806L3.32467 20.8858C2.96932 19.5843 3.68002 18.1645 5.1014 17.8095L68.4716 0.417113C69.7746 0.0621653 71.1959 0.77206 71.5513 2.19185L96.544 92.1119C96.7809 93.4134 96.0702 94.7148 94.7673 95.0698Z" fill="#2C2E3E" stroke="white" stroke-width="0.5" stroke-miterlimit="10"/>
<path d="M93.5828 100.631L28.4359 109.86C27.1329 110.096 25.83 109.15 25.5931 107.73L12.5637 15.3252C12.3268 14.0237 13.2744 12.7222 14.6958 12.4856L79.8427 3.25694C81.1457 3.02031 82.4486 3.96684 82.6855 5.38663L95.7149 97.7913C95.9518 99.0928 95.0042 100.394 93.5828 100.631Z" fill="#2C2E3E" stroke="white" stroke-width="0.5" stroke-miterlimit="10"/>
<path d="M91.3323 104.417L26.4222 115.302C25.1193 115.538 23.8164 114.592 23.5795 113.29L8.06266 21.2405C7.82576 19.939 8.77335 18.6375 10.0763 18.4009L74.9863 7.51586C76.2893 7.27923 77.5922 8.22575 77.8291 9.52723L93.3459 101.577C93.5828 102.878 92.6352 104.18 91.3323 104.417Z" fill="#2C2E3E" stroke="white" stroke-width="0.5" stroke-miterlimit="10"/>
<path d="M90.3847 109.15L26.5407 124.767C25.2377 125.122 23.9348 124.294 23.5795 122.993L1.31105 32.2445C0.955699 30.943 1.78484 29.6415 3.08778 29.2866L66.9318 13.6689C68.2347 13.3139 69.5377 14.1421 69.893 15.4436L92.1614 106.074C92.5168 107.493 91.6876 108.795 90.3847 109.15Z" fill="#2C2E3E" stroke="white" stroke-width="0.5" stroke-miterlimit="10"/>
<path d="M29.6204 66.5555L23.1057 68.0936C22.395 68.3303 21.5658 67.857 21.329 67.0288L16.8279 48.5715C16.591 47.8616 17.0648 47.0334 17.8939 46.7968L24.4086 45.2587C25.1193 45.022 25.9485 45.4953 26.1854 46.3235L30.6864 64.7808C30.9233 65.609 30.4495 66.3189 29.6204 66.5555Z" fill="#2C2E3E" stroke="white" stroke-width="0.5" stroke-miterlimit="10"/>
<path d="M42.6498 63.3611L36.1351 64.8992C35.4244 65.1359 34.5952 64.6626 34.3583 63.8344L28.3174 39.343C28.0805 38.6331 28.5543 37.8049 29.3835 37.5683L35.8982 36.0302C36.6089 35.7935 37.438 36.2668 37.6749 37.095L43.7158 61.5864C43.8343 62.4146 43.3605 63.1245 42.6498 63.3611Z" fill="#2C2E3E" stroke="white" stroke-width="0.5" stroke-miterlimit="10"/>
<path d="M55.2054 60.2848L48.6907 61.8229C47.98 62.0596 47.1508 61.5863 47.0324 60.8764L45.8479 56.1438C45.611 55.4339 46.0848 54.6057 46.9139 54.369L53.4286 52.8309C54.1393 52.5943 54.9685 53.0676 55.2054 53.8958L56.3899 58.6284C56.5083 59.3383 56.0345 60.0482 55.2054 60.2848Z" fill="#2C2E3E" stroke="white" stroke-width="0.5" stroke-miterlimit="10"/>
<path d="M67.9979 57.2085L61.4832 58.7466C60.7725 58.9833 59.9433 58.51 59.7064 57.6818L56.0345 42.8923C55.7976 42.1824 56.2714 41.3542 57.1006 41.1176L63.7337 39.5795C64.4444 39.3428 65.2735 39.8161 65.5104 40.6443L69.1824 55.4338C69.3008 56.1437 68.827 56.9719 67.9979 57.2085Z" fill="#2C2E3E" stroke="white" stroke-width="0.5" stroke-miterlimit="10"/>
<path d="M18.723 69.1586L71.5513 56.2622" stroke="white" stroke-width="0.5" stroke-miterlimit="10"/>
<path d="M18.723 69.1584L10.787 36.6216" stroke="white" stroke-width="0.5" stroke-miterlimit="10"/>
<path d="M21.5658 80.5171L42.1759 75.5479" stroke="white" stroke-width="0.5" stroke-miterlimit="10"/>
<path d="M45.7295 74.6008L74.2757 67.6201" stroke="white" stroke-width="0.5" stroke-miterlimit="10"/>
<path d="M23.461 88.089L32.1078 86.0776" stroke="white" stroke-width="0.5" stroke-miterlimit="10"/>
<path d="M61.8385 78.7422L76.1708 75.311" stroke="white" stroke-width="0.5" stroke-miterlimit="10"/>
<path d="M35.069 85.3678L58.5219 79.5703" stroke="white" stroke-width="0.5" stroke-miterlimit="10"/>
<path d="M25.2377 95.7792L78.066 82.8828" stroke="white" stroke-width="0.5" stroke-miterlimit="10"/>
<path d="M27.1329 103.352L43.1235 99.4478" stroke="white" stroke-width="0.5" stroke-miterlimit="10"/>
<path d="M45.4925 98.8558L67.0502 93.6499" stroke="white" stroke-width="0.5" stroke-miterlimit="10"/>
<path d="M29.0281 110.924L68.9455 101.222" stroke="white" stroke-width="0.5" stroke-miterlimit="10"/>
</svg>
