<svg width="92" height="106" viewBox="0 0 92 106" fill="none" xmlns="http://www.w3.org/2000/svg">
<path d="M34.7787 104.812L89.0283 84.5798C90.805 83.8699 91.7526 81.8585 91.042 80.0838L62.3773 3.29677C61.6666 1.52203 59.653 0.57551 57.8763 1.28541L3.62665 21.5174C1.84991 22.2273 0.902308 24.2387 1.613 26.0134L30.2777 102.8C30.9884 104.575 32.8835 105.522 34.7787 104.812Z" fill="white" stroke="#2C2E3E" stroke-width="0.5" stroke-miterlimit="10"/>
<path d="M57.047 17.377L20.3278 31.2199" stroke="#2C2E3E" stroke-width="0.5" stroke-miterlimit="10"/>
<path d="M34.3049 39.8564L24.9475 43.4059" stroke="#2C2E3E" stroke-width="0.5" stroke-miterlimit="10"/>
<path d="M61.5481 29.5635L55.981 31.6932" stroke="#2C2E3E" stroke-width="0.5" stroke-miterlimit="10"/>
<path d="M54.2043 32.4033L36.6739 38.9107" stroke="#2C2E3E" stroke-width="0.5" stroke-miterlimit="10"/>
<path d="M59.2976 23.5293L22.6969 37.2539" stroke="#2C2E3E" stroke-width="0.5" stroke-miterlimit="10"/>
<path d="M48.4003 41.395L27.1979 49.4405" stroke="#2C2E3E" stroke-width="0.5" stroke-miterlimit="10"/>
<path d="M63.9172 35.5977L50.2956 40.8036" stroke="#2C2E3E" stroke-width="0.5" stroke-miterlimit="10"/>
<path d="M37.9768 52.2798L29.4485 55.4743" stroke="#2C2E3E" stroke-width="0.5" stroke-miterlimit="10"/>
<path d="M68.892 49.5581L32.2912 63.4011" stroke="#2C2E3E" stroke-width="0.5" stroke-miterlimit="10"/>
<path d="M46.2682 72.0381L36.9107 75.4692" stroke="#2C2E3E" stroke-width="0.5" stroke-miterlimit="10"/>
<path d="M73.5115 61.7451L67.9443 63.8748" stroke="#2C2E3E" stroke-width="0.5" stroke-miterlimit="10"/>
<path d="M66.0491 64.4663L48.6371 71.092" stroke="#2C2E3E" stroke-width="0.5" stroke-miterlimit="10"/>
<path d="M71.2608 55.7109L34.5417 69.4356" stroke="#2C2E3E" stroke-width="0.5" stroke-miterlimit="10"/>
<path d="M60.3636 73.5767L39.1613 81.6221" stroke="#2C2E3E" stroke-width="0.5" stroke-miterlimit="10"/>
<path d="M75.762 67.7788L62.1404 72.9847" stroke="#2C2E3E" stroke-width="0.5" stroke-miterlimit="10"/>
<path d="M49.9401 84.4614L41.4117 87.6559" stroke="#2C2E3E" stroke-width="0.5" stroke-miterlimit="10"/>
<path d="M78.131 73.8135L52.4276 83.5154" stroke="#2C2E3E" stroke-width="0.5" stroke-miterlimit="10"/>
<path d="M2.44214 30.2727L3.86351 29.3262L4.45575 30.746L3.1528 31.6925L2.79747 32.4024L3.27126 32.7573L3.86351 32.639L4.3373 33.9405L2.67901 34.0588L1.61298 33.7039L1.13919 32.639L1.37607 31.4559L2.44214 30.2727Z" fill="white"/>
<path d="M5.52177 28.2613C5.52177 28.0247 5.40335 27.9063 5.40335 27.6697C5.40335 26.4866 6.35093 25.54 7.53542 25.54C8.7199 25.54 9.66748 26.4866 9.66748 27.6697C9.66748 28.8529 8.7199 29.7994 7.53542 29.7994C7.06162 29.7994 6.70627 29.6811 6.35093 29.4445" fill="white"/>
<path d="M5.52177 28.2613C5.52177 28.0247 5.40335 27.9063 5.40335 27.6697C5.40335 26.4866 6.35093 25.54 7.53542 25.54C8.7199 25.54 9.66748 26.4866 9.66748 27.6697C9.66748 28.8529 8.7199 29.7994 7.53542 29.7994C7.06162 29.7994 6.70627 29.6811 6.35093 29.4445" stroke="#2C2E3E" stroke-width="0.5" stroke-miterlimit="10"/>
<path d="M5.64024 26.8413C5.64024 26.8413 6.35095 27.7878 5.28491 28.4977C4.21886 29.2076 1.25763 30.5091 1.13918 32.0472C1.02073 33.3487 1.73141 34.5318 4.45575 33.9403" stroke="#2C2E3E" stroke-width="0.5" stroke-miterlimit="10"/>
<path d="M3.982 32.6388C3.982 32.6388 3.03441 32.9938 2.79751 32.4022C2.56061 31.6923 4.69269 30.6275 5.16649 30.2725C6.46942 29.4443 7.1801 29.0894 7.29855 27.7879C7.417 26.6047 6.82476 25.6582 6.82476 25.6582" stroke="#2C2E3E" stroke-width="0.5" stroke-miterlimit="10"/>
<path d="M5.52172 38.6736L6.94313 37.7271L7.53537 39.1468L6.23242 40.0934L5.87709 40.8033L6.35088 41.1582L6.94313 41.0399L7.41692 42.3414L5.75864 42.4597L4.6926 41.9864L4.21881 41.0399L4.45569 39.7384L5.52172 38.6736Z" fill="white"/>
<path d="M8.60143 36.6617C8.60143 36.4251 8.48297 36.3067 8.48297 36.0701C8.48297 34.887 9.43058 33.9404 10.6151 33.9404C11.7996 33.9404 12.7471 34.887 12.7471 36.0701C12.7471 37.2533 11.7996 38.1998 10.6151 38.1998C10.1413 38.1998 9.78593 38.0815 9.43058 37.8448" fill="white"/>
<path d="M8.60143 36.6617C8.60143 36.4251 8.48297 36.3067 8.48297 36.0701C8.48297 34.887 9.43058 33.9404 10.6151 33.9404C11.7996 33.9404 12.7471 34.887 12.7471 36.0701C12.7471 37.2533 11.7996 38.1998 10.6151 38.1998C10.1413 38.1998 9.78593 38.0815 9.43058 37.8448" stroke="#2C2E3E" stroke-width="0.5" stroke-miterlimit="10"/>
<path d="M8.71986 35.2422C8.71986 35.2422 9.43057 36.1887 8.36453 36.8986C7.29848 37.6085 4.33725 38.91 4.2188 40.4481C4.10035 41.7496 4.81103 42.9327 7.53537 42.3411" stroke="#2C2E3E" stroke-width="0.5" stroke-miterlimit="10"/>
<path d="M7.06162 41.0397C7.06162 41.0397 6.11403 41.3947 5.87713 40.8031C5.64023 40.0932 7.77231 39.0283 8.24611 38.6734C9.54905 37.8452 10.2597 37.4902 10.3782 36.1888C10.4966 35.0056 9.90438 34.0591 9.90438 34.0591" stroke="#2C2E3E" stroke-width="0.5" stroke-miterlimit="10"/>
<path d="M8.60136 47.0745L10.0228 46.1279L10.615 47.5477L9.31206 48.4942L8.95673 49.2041L9.43051 49.5591L10.1412 49.4408L10.615 50.7422L8.83827 50.8606L7.77225 50.3873L7.29843 49.4408L7.53534 48.1393L8.60136 47.0745Z" fill="white"/>
<path d="M11.6811 45.0626C11.6811 44.8259 11.5626 44.7076 11.5626 44.471C11.5626 43.2878 12.5102 42.3413 13.6947 42.3413C14.8792 42.3413 15.8268 43.2878 15.8268 44.471C15.8268 45.6542 14.8792 46.6007 13.6947 46.6007C13.2209 46.6007 12.8656 46.4824 12.5102 46.2457" fill="white"/>
<path d="M11.6811 45.0626C11.6811 44.8259 11.5626 44.7076 11.5626 44.471C11.5626 43.2878 12.5102 42.3413 13.6947 42.3413C14.8792 42.3413 15.8268 43.2878 15.8268 44.471C15.8268 45.6542 14.8792 46.6007 13.6947 46.6007C13.2209 46.6007 12.8656 46.4824 12.5102 46.2457" stroke="#2C2E3E" stroke-width="0.5" stroke-miterlimit="10"/>
<path d="M11.7995 43.6431C11.7995 43.6431 12.5102 44.5896 11.4442 45.2995C10.3781 46.0094 7.41687 47.3109 7.29842 48.849C7.17997 50.1504 7.89069 51.3336 10.615 50.742" stroke="#2C2E3E" stroke-width="0.5" stroke-miterlimit="10"/>
<path d="M10.2597 49.322C10.2597 49.322 9.31209 49.6769 9.07519 49.0853C8.83829 48.3754 10.9704 47.3106 11.4441 46.9556C12.7471 46.1274 13.4578 45.7725 13.5762 44.471C13.6947 43.2878 13.1024 42.3413 13.1024 42.3413" stroke="#2C2E3E" stroke-width="0.5" stroke-miterlimit="10"/>
<path d="M11.681 55.4744L13.2208 54.5278L13.8131 55.8293L12.3917 56.7758L12.1548 57.4857L12.6286 57.8407H13.2208L13.6947 59.0238L12.0363 59.2605L10.9703 58.7872L10.3781 57.8407L10.7334 56.5392L11.681 55.4744Z" fill="white"/>
<path d="M14.8791 53.4625C14.8791 53.2258 14.7607 53.1075 14.7607 52.8709C14.7607 51.6877 15.7082 50.7412 16.8927 50.7412C18.0772 50.7412 19.0248 51.6877 19.0248 52.8709C19.0248 54.0541 18.0772 55.0006 16.8927 55.0006C16.4189 55.0006 16.0636 54.8823 15.7082 54.6456" fill="white"/>
<path d="M14.8791 53.4625C14.8791 53.2258 14.7607 53.1075 14.7607 52.8709C14.7607 51.6877 15.7082 50.7412 16.8927 50.7412C18.0772 50.7412 19.0248 51.6877 19.0248 52.8709C19.0248 54.0541 18.0772 55.0006 16.8927 55.0006C16.4189 55.0006 16.0636 54.8823 15.7082 54.6456" stroke="#2C2E3E" stroke-width="0.5" stroke-miterlimit="10"/>
<path d="M14.9975 51.9243C14.9975 51.9243 15.7082 52.8708 14.6422 53.5807C13.5762 54.2906 10.6149 55.5921 10.4965 57.1302C10.378 58.4317 11.0887 59.6149 13.813 59.0233" stroke="#2C2E3E" stroke-width="0.5" stroke-miterlimit="10"/>
<path d="M13.3393 57.7219C13.3393 57.7219 12.3917 58.0768 12.1548 57.4852C11.9179 56.7753 14.05 55.7105 14.5238 55.3555C15.8267 54.5273 16.5374 54.1724 16.6559 52.8709C16.7743 51.6877 16.1821 50.7412 16.1821 50.7412" stroke="#2C2E3E" stroke-width="0.5" stroke-miterlimit="10"/>
<path d="M14.8792 63.7561L16.3006 62.8096L16.8929 64.111L15.5899 65.0576L15.2346 65.7675L15.7084 66.1224H16.3006L16.7744 67.3056L15.1161 67.5422L14.0501 67.0689L13.5763 66.1224L13.8132 64.8209L14.8792 63.7561Z" fill="white"/>
<path d="M17.9589 61.7442C17.9589 61.5076 17.8405 61.3893 17.8405 61.1526C17.8405 59.9695 18.7881 59.0229 19.9725 59.0229C21.157 59.0229 22.1046 59.9695 22.1046 61.1526C22.1046 62.3358 21.157 63.2823 19.9725 63.2823C19.4988 63.2823 19.1434 63.164 18.7881 62.9274" fill="white"/>
<path d="M17.9589 61.7442C17.9589 61.5076 17.8405 61.3893 17.8405 61.1526C17.8405 59.9695 18.7881 59.0229 19.9725 59.0229C21.157 59.0229 22.1046 59.9695 22.1046 61.1526C22.1046 62.3358 21.157 63.2823 19.9725 63.2823C19.4988 63.2823 19.1434 63.164 18.7881 62.9274" stroke="#2C2E3E" stroke-width="0.5" stroke-miterlimit="10"/>
<path d="M18.0773 60.3242C18.0773 60.3242 18.7881 61.2707 17.722 61.9806C16.656 62.6905 13.6947 63.992 13.5763 65.5301C13.4578 66.8316 14.1685 68.0148 16.8928 67.4232" stroke="#2C2E3E" stroke-width="0.5" stroke-miterlimit="10"/>
<path d="M16.4191 66.0036C16.4191 66.0036 15.4715 66.3585 15.2346 65.767C14.9977 65.0571 17.1298 63.9922 17.6036 63.6373C18.9065 62.8091 19.6172 62.4541 19.7357 61.1526C19.8541 59.9695 19.2619 59.0229 19.2619 59.0229" stroke="#2C2E3E" stroke-width="0.5" stroke-miterlimit="10"/>
<path d="M17.9589 72.1576L19.3803 71.0928L19.9726 72.5126L18.6696 73.4591L18.4327 74.169L18.7881 74.5239L19.4988 74.4056L19.9726 75.7071L18.1958 75.9437L17.2483 75.4704L16.656 74.4056L17.0113 73.2225L17.9589 72.1576Z" fill="white"/>
<path d="M21.1571 70.0274C21.1571 69.7908 21.0386 69.6725 21.0386 69.4358C21.0386 68.2527 21.9862 67.3062 23.1707 67.3062C24.3552 67.3062 25.3028 68.2527 25.3028 69.4358C25.3028 70.619 24.3552 71.5655 23.1707 71.5655C22.6969 71.5655 22.3416 71.4472 21.9862 71.2106" fill="white"/>
<path d="M21.1571 70.0274C21.1571 69.7908 21.0386 69.6725 21.0386 69.4358C21.0386 68.2527 21.9862 67.3062 23.1707 67.3062C24.3552 67.3062 25.3028 68.2527 25.3028 69.4358C25.3028 70.619 24.3552 71.5655 23.1707 71.5655C22.6969 71.5655 22.3416 71.4472 21.9862 71.2106" stroke="#2C2E3E" stroke-width="0.5" stroke-miterlimit="10"/>
<path d="M21.2755 68.6074C21.2755 68.6074 21.9861 69.554 20.9201 70.2639C19.8541 70.9737 16.8929 72.2752 16.7744 73.8133C16.656 75.1148 17.3667 76.298 20.091 75.7064" stroke="#2C2E3E" stroke-width="0.5" stroke-miterlimit="10"/>
<path d="M19.6172 74.4049C19.6172 74.4049 18.6696 74.7599 18.4327 74.1683C18.1958 73.4584 20.3279 72.3936 20.8017 72.0386C22.1046 71.2104 22.8153 70.8555 22.9338 69.554C23.0522 68.3708 22.46 67.4243 22.46 67.4243" stroke="#2C2E3E" stroke-width="0.5" stroke-miterlimit="10"/>
<path d="M21.0386 80.4387L22.5784 79.4922L23.0522 80.912L21.7493 81.8585L21.5124 82.5684L21.8677 82.9234L22.5784 82.805L23.0522 84.1065L21.2755 84.2248L20.3279 83.7516L19.7356 82.805L20.091 81.5036L21.0386 80.4387Z" fill="white"/>
<path d="M24.2367 78.4273C24.2367 78.1907 24.1183 78.0724 24.1183 77.8357C24.1183 76.6526 25.0658 75.7061 26.2503 75.7061C27.4348 75.7061 28.3824 76.6526 28.3824 77.8357C28.3824 79.0189 27.4348 79.9654 26.2503 79.9654C25.7765 79.9654 25.4212 79.8471 25.0658 79.6105" fill="white"/>
<path d="M24.2367 78.4273C24.2367 78.1907 24.1183 78.0724 24.1183 77.8357C24.1183 76.6526 25.0658 75.7061 26.2503 75.7061C27.4348 75.7061 28.3824 76.6526 28.3824 77.8357C28.3824 79.0189 27.4348 79.9654 26.2503 79.9654C25.7765 79.9654 25.4212 79.8471 25.0658 79.6105" stroke="#2C2E3E" stroke-width="0.5" stroke-miterlimit="10"/>
<path d="M24.3551 77.0078C24.3551 77.0078 25.0658 77.9543 23.9998 78.6642C22.9337 79.3741 19.9725 80.6756 19.8541 82.2137C19.7356 83.5152 20.4463 84.6983 23.1706 84.1067" stroke="#2C2E3E" stroke-width="0.5" stroke-miterlimit="10"/>
<path d="M22.6968 82.8053C22.6968 82.8053 21.7493 83.1603 21.5124 82.5687C21.2755 81.8588 23.4075 80.794 23.8813 80.439C25.1843 79.6108 25.895 79.2559 26.0134 77.9544C26.1319 76.7712 25.5396 75.8247 25.5396 75.8247" stroke="#2C2E3E" stroke-width="0.5" stroke-miterlimit="10"/>
<path d="M24.2367 88.8391L25.658 87.8926L26.2503 89.3124L24.9474 90.1406L24.592 90.8505L25.0658 91.2054H25.7765L26.2503 92.3886L24.4735 92.6252L23.4075 92.152L22.9337 91.2054L23.1706 89.9039L24.2367 88.8391Z" fill="white"/>
<path d="M27.3163 86.8277C27.3163 86.5911 27.1979 86.4728 27.1979 86.2361C27.1979 85.053 28.1455 84.1064 29.3299 84.1064C30.5144 84.1064 31.462 85.053 31.462 86.2361C31.462 87.4193 30.5144 88.3658 29.3299 88.3658C28.8561 88.3658 28.5008 88.2475 28.1455 88.0109" fill="white"/>
<path d="M27.3163 86.8277C27.3163 86.5911 27.1979 86.4728 27.1979 86.2361C27.1979 85.053 28.1455 84.1064 29.3299 84.1064C30.5144 84.1064 31.462 85.053 31.462 86.2361C31.462 87.4193 30.5144 88.3658 29.3299 88.3658C28.8561 88.3658 28.5008 88.2475 28.1455 88.0109" stroke="#2C2E3E" stroke-width="0.5" stroke-miterlimit="10"/>
<path d="M27.4347 85.4082C27.4347 85.4082 28.1454 86.3547 27.0794 87.0646C26.0134 87.7745 23.0521 89.076 22.9337 90.6141C22.8152 91.9156 23.5259 93.0987 26.2502 92.5072" stroke="#2C2E3E" stroke-width="0.5" stroke-miterlimit="10"/>
<path d="M25.7765 91.0871C25.7765 91.0871 24.8289 91.442 24.592 90.8504C24.3551 90.1406 26.4872 89.0757 26.961 88.7208C28.2639 87.8925 28.9746 87.5376 29.0931 86.2361C29.2115 85.053 28.6193 84.1064 28.6193 84.1064" stroke="#2C2E3E" stroke-width="0.5" stroke-miterlimit="10"/>
<path d="M27.3163 97.2406L28.7377 96.1758L29.3299 97.5956L28.027 98.5421L27.7901 99.252L28.1454 99.6069L28.8561 99.4886L29.3299 100.79L27.5532 101.027L26.4872 100.553L26.0134 99.4886L26.2502 98.3055L27.3163 97.2406Z" fill="white"/>
<path d="M30.5144 95.1104C30.5144 94.8738 30.396 94.7555 30.396 94.5189C30.396 93.3357 31.3436 92.3892 32.5281 92.3892C33.7126 92.3892 34.6601 93.3357 34.6601 94.5189C34.6601 95.702 33.7126 96.6485 32.5281 96.6485C32.0543 96.6485 31.6989 96.5302 31.3436 96.2936" fill="white"/>
<path d="M30.5144 95.1104C30.5144 94.8738 30.396 94.7555 30.396 94.5189C30.396 93.3357 31.3436 92.3892 32.5281 92.3892C33.7126 92.3892 34.6601 93.3357 34.6601 94.5189C34.6601 95.702 33.7126 96.6485 32.5281 96.6485C32.0543 96.6485 31.6989 96.5302 31.3436 96.2936" stroke="#2C2E3E" stroke-width="0.5" stroke-miterlimit="10"/>
<path d="M30.5146 93.6914C30.5146 93.6914 31.2253 94.6379 30.1592 95.3478C29.0932 96.0577 26.132 97.3592 26.0135 98.8973C25.8951 100.199 26.6057 101.382 29.3301 100.79" stroke="#2C2E3E" stroke-width="0.5" stroke-miterlimit="10"/>
<path d="M28.9746 99.4889C28.9746 99.4889 28.027 99.8439 27.7901 99.2523C27.5532 98.5424 29.6853 97.4776 30.1591 97.1226C31.4621 96.2944 32.1728 95.9395 32.2912 94.638C32.4097 93.4548 31.8174 92.5083 31.8174 92.5083" stroke="#2C2E3E" stroke-width="0.5" stroke-miterlimit="10"/>
</svg>
